{"asset":{"version":"2.0","generator":"babylon.js glTF exporter for 3dsmax 2022 v20210727.3"},"scene":0,"scenes":[{"nodes":[0,1]}],"nodes":[{"mesh":0,"translation":[0.0,3.4198153,0.0],"scale":[2.161,2.161,2.161],"name":"Sphere001"},{"mesh":1,"translation":[1.18918526,-0.2844888,-0.794591367],"name":"Sphere002"}],"meshes":[{"primitives":[{"attributes":{"POSITION":1,"NORMAL":2,"TEXCOORD_0":3},"indices":0,"material":0},{"attributes":{"POSITION":5,"NORMAL":6,"TEXCOORD_0":7},"indices":4,"material":1},{"attributes":{"POSITION":9,"NORMAL":10,"TEXCOORD_0":11},"indices":8,"material":2},{"attributes":{"POSITION":13,"NORMAL":14,"TEXCOORD_0":15},"indices":12,"material":3}],"name":"Sphere001"},{"primitives":[{"attributes":{"POSITION":17,"NORMAL":18,"TEXCOORD_0":19},"indices":16}],"name":"Sphere002"}],"accessors":[{"bufferView":0,"componentType":5123,"count":1479,"type":"SCALAR","name":"accessorIndices"},{"bufferView":1,"componentType":5126,"count":309,"max":[1.453284,1.45825374,1.40777719],"min":[-1.45327592,0.05039347,-1.4591924],"type":"VEC3","name":"accessorPositions"},{"bufferView":1,"byteOffset":3708,"componentType":5126,"count":309,"type":"VEC3","name":"accessorNormals"},{"bufferView":2,"componentType":5126,"count":309,"type":"VEC2","name":"accessorUVs"},{"bufferView":0,"byteOffset":2960,"componentType":5123,"count":1470,"type":"SCALAR","name":"accessorIndices"},{"bufferView":1,"byteOffset":7416,"componentType":5126,"count":307,"max":[1.453284,-0.039510183,1.41057134],"min":[-1.45327592,-1.45823061,-1.4591924],"type":"VEC3","name":"accessorPositions"},{"bufferView":1,"byteOffset":11100,"componentType":5126,"count":307,"type":"VEC3","name":"accessorNormals"},{"bufferView":2,"byteOffset":2472,"componentType":5126,"count":307,"type":"VEC2","name":"accessorUVs"},{"bufferView":0,"byteOffset":5900,"componentType":5123,"count":573,"type":"SCALAR","name":"accessorIndices"},{"bufferView":1,"byteOffset":14784,"componentType":5126,"count":655,"max":[1.453284,1.45825374,1.41057134],"min":[-1.45327592,-1.45823061,-1.4591924],"type":"VEC3","name":"accessorPositions"},{"bufferView":1,"byteOffset":22644,"componentType":5126,"count":655,"type":"VEC3","name":"accessorNormals"},{"bufferView":2,"byteOffset":4928,"componentType":5126,"count":655,"type":"VEC2","name":"accessorUVs"},{"bufferView":0,"byteOffset":7048,"componentType":5123,"count":1050,"type":"SCALAR","name":"accessorIndices"},{"bufferView":1,"byteOffset":30504,"componentType":5126,"count":288,"max":[0.292991221,0.2944016,1.43378961],"min":[-0.286511421,-0.2762988,1.3683033],"type":"VEC3","name":"accessorPositions"},{"bufferView":1,"byteOffset":33960,"componentType":5126,"count":288,"type":"VEC3","name":"accessorNormals"},{"bufferView":2,"byteOffset":10168,"componentType":5126,"count":288,"type":"VEC2","name":"accessorUVs"},{"bufferView":0,"byteOffset":9148,"componentType":5123,"count":2880,"type":"SCALAR","name":"accessorIndices"},{"bufferView":1,"byteOffset":37416,"componentType":5126,"count":559,"max":[0.0,0.0,0.0],"min":[0.0,0.0,0.0],"type":"VEC3","name":"accessorPositions"},{"bufferView":1,"byteOffset":44124,"componentType":5126,"count":559,"type":"VEC3","name":"accessorNormals"},{"bufferView":2,"byteOffset":12472,"componentType":5126,"count":559,"type":"VEC2","name":"accessorUVs"}],"bufferViews":[{"buffer":0,"byteLength":14908,"name":"bufferViewScalar"},{"buffer":0,"byteOffset":14908,"byteLength":50832,"byteStride":12,"name":"bufferViewFloatVec3"},{"buffer":0,"byteOffset":65740,"byteLength":16944,"byteStride":8,"name":"bufferViewFloatVec2"}],"buffers":[{"uri":"MaterialTest.bin","byteLength":82684}],"materials":[{"pbrMetallicRoughness":{"baseColorFactor":[1.0,0.0643564463,0.0643564463,1.0],"roughnessFactor":0.0},"doubleSided":true,"name":"Material #37"},{"pbrMetallicRoughness":{"roughnessFactor":0.109999955},"doubleSided":true,"name":"Material #64"},{"pbrMetallicRoughness":{"baseColorFactor":[0.0,0.0,0.0,1.0],"metallicFactor":0.0},"doubleSided":true,"name":"Material #62"},{"pbrMetallicRoughness":{"baseColorFactor":[0.5,0.5,0.5,1.0],"metallicFactor":0.0,"roughnessFactor":0.0},"doubleSided":true,"name":"Material #66"}]}